<svg height="512pt" viewBox="0 0 512 512" width="512pt" xmlns="http://www.w3.org/2000/svg"><path d="m117.316406 512c-5.886718 0-10.664062-4.777344-10.664062-10.667969v-490.664062c0-5.890625 4.777344-10.667969 10.664062-10.667969 5.890625 0 10.667969 4.777344 10.667969 10.667969v490.664062c0 5.890625-4.777344 10.667969-10.667969 10.667969zm0 0"/><path d="m223.984375 128c-2.730469 0-5.460937-1.046875-7.550781-3.113281l-99.117188-99.136719-99.113281 99.136719c-4.160156 4.160156-10.921875 4.160156-15.082031 0-4.160156-4.160157-4.160156-10.925781 0-15.085938l106.664062-106.664062c4.160156-4.160157 10.925782-4.160157 15.085938 0l106.664062 106.664062c4.160156 4.160157 4.160156 10.925781 0 15.085938-2.089844 2.066406-4.820312 3.113281-7.550781 3.113281zm0 0"/><path d="m394.652344 512c-5.890625 0-10.667969-4.777344-10.667969-10.667969v-490.664062c0-5.890625 4.777344-10.667969 10.667969-10.667969 5.886718 0 10.664062 4.777344 10.664062 10.667969v490.664062c0 5.890625-4.777344 10.667969-10.664062 10.667969zm0 0"/><path d="m394.652344 512c-2.730469 0-5.464844-1.046875-7.554688-3.113281l-106.664062-106.667969c-4.160156-4.160156-4.160156-10.921875 0-15.082031 4.160156-4.160157 10.921875-4.160157 15.082031 0l99.113281 99.113281 99.113282-99.113281c4.160156-4.160157 10.925781-4.160157 15.085937 0 4.160156 4.160156 4.160156 10.921875 0 15.082031l-106.667969 106.667969c-2.046875 2.066406-4.777344 3.113281-7.507812 3.113281zm0 0"/></svg>